<?xml version="1.0" standalone="no"?>
<!DOCTYPE svg PUBLIC "-//W3C//DTD SVG 20010904//EN"
 "http://www.w3.org/TR/2001/REC-SVG-20010904/DTD/svg10.dtd">
<svg version="1.0" xmlns="http://www.w3.org/2000/svg"
 width="139.000000pt" height="128.000000pt" viewBox="0 0 139.000000 128.000000"
 preserveAspectRatio="xMidYMid meet">
<metadata>
Created by potrace 1.15, written by Peter Selinger 2001-2017
</metadata>
<g transform="translate(0.000000,128.000000) scale(0.100000,-0.100000)"
fill="#000000" stroke="none">
<path d="M25 1255 l-25 -24 0 -591 0 -591 25 -24 24 -25 591 0 591 0 24 25 25
24 0 591 0 591 -25 24 -24 25 -591 0 -591 0 -24 -25z m325 -174 c14 -10 31
-34 39 -54 12 -32 11 -40 -5 -74 -25 -51 -81 -79 -126 -64 -43 15 -65 37 -78
77 -16 46 11 102 60 127 39 19 71 16 110 -12z m616 -282 c39 -12 78 -52 100
-104 15 -33 19 -79 22 -272 l4 -233 -96 0 -96 0 0 204 c0 191 -1 205 -21 230
-17 21 -29 26 -68 26 -27 0 -56 -7 -70 -16 -43 -31 -51 -70 -51 -264 l0 -180
-95 0 -95 0 0 305 0 305 90 0 90 0 0 -46 0 -47 20 26 c58 73 159 98 266 66z
m-586 -304 l0 -305 -95 0 -95 0 0 305 0 305 95 0 95 0 0 -305z"/>
</g>
</svg>
